# Wavefront OBJ file automatically generated by Tiled2Unity

# Vertices (Count = 109)
v -800 -336 0
v -816 -336 0
v -816 -320 0
v -800 -320 0
v -784 -336 0
v -784 -320 0
v -768 -336 0
v -768 -320 0
v -752 -336 0
v -752 -320 0
v -736 -336 0
v -736 -320 0
v -720 -336 0
v -720 -320 0
v -704 -352 0
v -720 -352 0
v -704 -336 0
v -304 -352 0
v -320 -352 0
v -320 -336 0
v -304 -336 0
v -288 -352 0
v -288 -336 0
v -272 -352 0
v -272 -336 0
v -688 -368 0
v -704 -368 0
v -688 -352 0
v -304 -368 0
v -320 -368 0
v -272 -368 0
v -288 -368 0
v -672 -384 0
v -688 -384 0
v -672 -368 0
v -656 -384 0
v -656 -368 0
v -640 -384 0
v -640 -368 0
v -624 -384 0
v -624 -368 0
v -608 -384 0
v -608 -368 0
v -592 -384 0
v -592 -368 0
v -544 -384 0
v -560 -384 0
v -560 -368 0
v -544 -368 0
v -528 -384 0
v -528 -368 0
v -480 -384 0
v -496 -384 0
v -496 -368 0
v -480 -368 0
v -464 -384 0
v -464 -368 0
v -416 -384 0
v -432 -384 0
v -432 -368 0
v -416 -368 0
v -400 -384 0
v -400 -368 0
v -384 -384 0
v -384 -368 0
v -368 -384 0
v -368 -368 0
v -352 -384 0
v -352 -368 0
v -336 -384 0
v -336 -368 0
v -320 -384 0
v -304 -384 0
v -272 -384 0
v -288 -384 0
v -256 -384 0
v -256 -368 0
v -240 -384 0
v -240 -368 0
v -224 -384 0
v -224 -368 0
v -208 -384 0
v -208 -368 0
v -192 -384 0
v -192 -368 0
v -176 -384 0
v -176 -368 0
v -160 -384 0
v -160 -368 0
v -144 -384 0
v -144 -368 0
v -128 -384 0
v -128 -368 0
v -112 -384 0
v -112 -368 0
v -96 -384 0
v -96 -368 0
v -80 -384 0
v -80 -368 0
v -64 -384 0
v -64 -368 0
v -48 -384 0
v -48 -368 0
v -320 -320 0
v -304 -320 0
v -192 -352 0
v -176 -352 0
v -160 -352 0
v -144 -352 0

# Texture cooridinates (Count = 8)
vt 0.0001220703 0.6251221
vt 0.1248779 0.6251221
vt 0.1248779 0.7498779
vt 0.0001220703 0.7498779
vt 0.1251221 0.6251221
vt 0.2498779 0.6251221
vt 0.2498779 0.7498779
vt 0.1251221 0.7498779

# Normal
vn 0 0 -1

# Groups (Count = 2)

g mesh_0001
f 1/1/1 2/2/1 3/3/1 4/4/1
f 5/1/1 1/2/1 4/3/1 6/4/1
f 7/1/1 5/2/1 6/3/1 8/4/1
f 9/1/1 7/2/1 8/3/1 10/4/1
f 11/1/1 9/2/1 10/3/1 12/4/1
f 13/1/1 11/2/1 12/3/1 14/4/1
f 15/1/1 16/2/1 13/3/1 17/4/1
f 18/1/1 19/2/1 20/3/1 21/4/1
f 22/1/1 18/2/1 21/3/1 23/4/1
f 24/1/1 22/2/1 23/3/1 25/4/1
f 26/1/1 27/2/1 15/3/1 28/4/1
f 29/1/1 30/2/1 19/3/1 18/4/1
f 31/1/1 32/2/1 22/3/1 24/4/1
f 33/1/1 34/2/1 26/3/1 35/4/1
f 36/1/1 33/2/1 35/3/1 37/4/1
f 38/1/1 36/2/1 37/3/1 39/4/1
f 40/1/1 38/2/1 39/3/1 41/4/1
f 42/1/1 40/2/1 41/3/1 43/4/1
f 44/1/1 42/2/1 43/3/1 45/4/1
f 46/1/1 47/2/1 48/3/1 49/4/1
f 50/1/1 46/2/1 49/3/1 51/4/1
f 52/1/1 53/2/1 54/3/1 55/4/1
f 56/1/1 52/2/1 55/3/1 57/4/1
f 58/1/1 59/2/1 60/3/1 61/4/1
f 62/1/1 58/2/1 61/3/1 63/4/1
f 64/1/1 62/2/1 63/3/1 65/4/1
f 66/1/1 64/2/1 65/3/1 67/4/1
f 68/1/1 66/2/1 67/3/1 69/4/1
f 70/1/1 68/2/1 69/3/1 71/4/1
f 72/1/1 70/2/1 71/3/1 30/4/1
f 73/1/1 72/2/1 30/3/1 29/4/1
f 74/1/1 75/2/1 32/3/1 31/4/1
f 76/1/1 74/2/1 31/3/1 77/4/1
f 78/1/1 76/2/1 77/3/1 79/4/1
f 80/1/1 78/2/1 79/3/1 81/4/1
f 82/1/1 80/2/1 81/3/1 83/4/1
f 84/1/1 82/2/1 83/3/1 85/4/1
f 86/1/1 84/2/1 85/3/1 87/4/1
f 88/1/1 86/2/1 87/3/1 89/4/1
f 90/1/1 88/2/1 89/3/1 91/4/1
f 92/1/1 90/2/1 91/3/1 93/4/1
f 94/1/1 92/2/1 93/3/1 95/4/1
f 96/1/1 94/2/1 95/3/1 97/4/1
f 98/1/1 96/2/1 97/3/1 99/4/1
f 100/1/1 98/2/1 99/3/1 101/4/1
f 102/1/1 100/2/1 101/3/1 103/4/1

g mesh_0002
f 21/5/1 20/6/1 104/7/1 105/8/1
f 87/5/1 85/6/1 106/7/1 107/8/1
f 89/5/1 87/6/1 107/7/1 108/8/1
f 91/5/1 89/6/1 108/7/1 109/8/1

